<?xml version="1.0" encoding="utf-8"?>
<!-- Generator: Adobe Illustrator 16.0.0, SVG Export Plug-In . SVG Version: 6.00 Build 0)  -->
<!DOCTYPE svg PUBLIC "-//W3C//DTD SVG 1.1//EN" "http://www.w3.org/Graphics/SVG/1.1/DTD/svg11.dtd">
<svg version="1.1" id="Layer_1" xmlns="http://www.w3.org/2000/svg" xmlns:xlink="http://www.w3.org/1999/xlink" x="0px" y="0px"
	 width="435.935px" height="150px" viewBox="-681.392 25 435.935 150" enable-background="new -681.392 25 435.935 150"
	 xml:space="preserve">
<g>
	<path fill="#FFFFFF" d="M-607.437,155.896c-8.702-0.002-17.283-2.042-25.054-5.96c19.832-3.338,34.374-20.477,34.438-40.589V90.691
		c-0.008-10.977,7.862-20.377,18.669-22.3c10.807-1.923,21.437,4.186,25.217,14.492c0.82,2.556,1.453,5.168,1.894,7.814h18.808
		c-0.314-2.511-0.756-5.005-1.326-7.47c-0.514-2.784-1.314-5.507-2.39-8.127c-11.533-32.557-43.928-52.927-78.267-49.215
		c-34.344,3.714-61.635,30.534-65.945,64.805h18.809c5.125-30.462,33.976-51.002,64.439-45.877c5.464,0.92,10.76,2.645,15.718,5.122
		c-19.828,3.402-34.321,20.592-34.324,40.708v18.696c0.007,11.108-8.05,20.583-19.017,22.359
		c-10.968,1.775-21.603-4.67-25.103-15.215c-0.724-2.342-1.292-4.729-1.702-7.145h-18.807c0.507,4.083,1.354,8.116,2.53,12.059
		l0.1,0.331c10.245,33.633,42.603,55.534,77.635,52.546c35.034-2.988,63.214-30.054,67.615-64.937h-18.814
		c-4.57,26.882-27.858,46.551-55.125,46.555V155.896z"/>
	<g>
		<path fill="#FFFFFF" d="M-503.025,115.629l3.689-6.26c2.27,1.676,5,2.611,7.82,2.686c3.523,0,5.359-1.566,5.359-3.689
			c0-2.9-3.853-3.516-8.209-5.758c-4.581-2.234-7.767-5.196-7.767-11.282c0-6.479,5.419-10.617,12.4-10.617
			c6.26,0,9.551,1.983,11.238,3.187l-3.517,6.259c-1.283-0.781-4.192-2.233-7.094-2.233c-2.901,0-4.468,1.116-4.468,3.351
			c0,2.645,2.901,3.351,6.874,5.143c4.918,2.183,9.221,4.694,9.221,11.458c0,7.039-5.142,11.393-13.742,11.393
			c-6.149,0-10.114-2.291-11.786-3.629h-0.02V115.629z"/>
		<path fill="#FFFFFF" d="M-284.396,100.07c0-10.055,6.762-19.328,19.499-19.328c12.85,0,19.439,9.109,19.439,19.051
			c0,10.055-6.424,19.499-19.222,19.499c-12.796,0-19.723-9.221-19.723-19.212L-284.396,100.07L-284.396,100.07z M-254.955,100.07
			c0-6.476-2.736-12.121-9.724-12.121c-7.092,0-10.165,5.419-10.165,11.844c0,6.538,3.014,12.288,9.915,12.288
			c7.092,0,9.915-5.584,9.915-12.01H-254.955z"/>
		<path fill="#FFFFFF" d="M-324.123,99.957c0-10.111,7.542-19.215,20.782-19.215c5.758,0,9.498,1.229,12.399,3.306l-3.913,6.704
			c-2.546-1.742-5.575-2.641-8.659-2.573c-7.378,0-11.064,4.693-11.064,11.567c0,6.875,3.126,12.288,10.391,12.288
			c1.966,0.08,3.922-0.32,5.696-1.17v-6.426h-6.477v-6.966h15.084v18.326c-2.645,1.563-6.704,3.461-14.245,3.461
			c-13.127,0-20.002-9.219-20.002-19.328L-324.123,99.957L-324.123,99.957z"/>
		<path fill="#FFFFFF" d="M-348.679,81.383h8.66l14.634,37.208h-9.83l-2.182-6.26h-14.186l-2.18,6.26h-9.129L-348.679,81.383z
			 M-339.908,105.178l-2.736-7.654c-0.727-2.124-1.342-4.287-1.845-6.478h-0.111c-0.226,0.662-0.839,3.411-1.897,6.478l-2.685,7.654
			H-339.908L-339.908,105.178z"/>
		<polygon fill="#FFFFFF" points="-390.065,81.383 -367.83,81.383 -367.83,88.761 -381.123,88.761 -381.123,95.967 -369.39,95.967 
			-369.39,102.865 -381.123,102.865 -381.123,111.188 -367.432,111.188 -367.432,118.564 -390.065,118.564 		"/>
		<path fill="#FFFFFF" d="M-432.594,81.383h9.108l12.07,17.317c2.399,3.465,3.8,6.088,4.078,6.538h0.112
			c-0.052-0.387-0.224-3.184-0.224-6.085v-17.77h8.156v37.208h-8.215l-13.223-18.774c-2.293-3.187-3.409-5.247-3.799-5.81h-0.112
			c0.052,0.39,0.224,2.683,0.224,5.195v19.386h-8.177V81.381L-432.594,81.383z"/>
		<path fill="#FFFFFF" d="M-460.457,81.383h8.66l14.634,37.208h-9.836l-2.181-6.26h-14.186l-2.181,6.26h-9.108l14.191-37.208
			H-460.457z M-451.685,105.178l-2.737-7.654c-0.725-2.124-1.341-4.287-1.843-6.478h-0.121c-0.223,0.662-0.838,3.411-1.897,6.478
			l-2.683,7.654H-451.685z"/>
	</g>
</g>
</svg>
